<?xml version="1.0" encoding="UTF-8" standalone="no"?><svg xmlns="http://www.w3.org/2000/svg" xmlns:xlink="http://www.w3.org/1999/xlink" contentScriptType="application/ecmascript" contentStyleType="text/css" height="196px" preserveAspectRatio="none" style="width:373px;height:196px;background:#FFFFFF;" version="1.1" viewBox="0 0 373 196" width="373px" zoomAndPan="magnify"><defs><filter height="300%" id="fqrbzfvpp5bvq" width="300%" x="-1" y="-1"><feGaussianBlur result="blurOut" stdDeviation="2.0"/><feColorMatrix in="blurOut" result="blurOut2" type="matrix" values="0 0 0 0 0 0 0 0 0 0 0 0 0 0 0 0 0 0 .4 0"/><feOffset dx="4.0" dy="4.0" in="blurOut2" result="blurOut3"/><feBlend in="SourceGraphic" in2="blurOut3" mode="normal"/></filter></defs><g><!--MD5=[3f0ef310aaa84a542276992c5216544d]
class Car--><rect codeLine="1" fill="#FEFECE" filter="url(#fqrbzfvpp5bvq)" height="48" id="Car" style="stroke:#A80036;stroke-width:1.5;" width="52" x="154" y="7"/><ellipse cx="169" cy="23" fill="#ADD1B2" rx="11" ry="11" style="stroke:#A80036;stroke-width:1.0;"/><path d="M168.4219,28.8594 Q166.3906,28.8594 165.2031,27.3594 Q164.0313,25.8594 164.0313,22.75 Q164.0313,20.1094 165.2813,18.3438 Q166.5313,16.5625 168.6875,16.5625 Q169.2031,16.5625 169.7344,16.7031 Q170.1719,16.8906 170.4219,16.8906 Q170.6094,16.8906 170.7031,16.8594 Q170.7969,16.8125 171.3438,16.0938 L172.1563,20.0625 L171.1094,20.375 Q170.6563,18.875 170.0625,18.2969 Q169.4844,17.7031 168.5625,17.7031 Q167.3906,17.7031 166.6875,19.1094 Q165.9844,20.5 165.9844,22.6719 Q165.9844,25.0625 166.5781,26.3281 Q167.1875,27.5781 168.5,27.5781 Q169.4219,27.5781 170.0938,26.9063 Q170.7656,26.2188 171.0938,24.6406 L172.1406,25.1406 Q171.7344,26.9063 170.75,27.8906 Q169.7656,28.8594 168.4219,28.8594 Z " fill="#000000"/><text fill="#000000" font-family="sans-serif" font-size="12" lengthAdjust="spacing" textLength="20" x="183" y="28.5576">Car</text><line style="stroke:#A80036;stroke-width:1.5;" x1="155" x2="205" y1="39" y2="39"/><line style="stroke:#A80036;stroke-width:1.5;" x1="155" x2="205" y1="47" y2="47"/><!--MD5=[eee9d396a8aca12c6c152931e8dc1ab6]
class Driver--><rect fill="#FEFECE" filter="url(#fqrbzfvpp5bvq)" height="48" id="Driver" style="stroke:#A80036;stroke-width:1.5;" width="64" x="7" y="7"/><ellipse cx="22" cy="23" fill="#ADD1B2" rx="11" ry="11" style="stroke:#A80036;stroke-width:1.0;"/><path d="M21.4219,28.8594 Q19.3906,28.8594 18.2031,27.3594 Q17.0313,25.8594 17.0313,22.75 Q17.0313,20.1094 18.2813,18.3438 Q19.5313,16.5625 21.6875,16.5625 Q22.2031,16.5625 22.7344,16.7031 Q23.1719,16.8906 23.4219,16.8906 Q23.6094,16.8906 23.7031,16.8594 Q23.7969,16.8125 24.3438,16.0938 L25.1563,20.0625 L24.1094,20.375 Q23.6563,18.875 23.0625,18.2969 Q22.4844,17.7031 21.5625,17.7031 Q20.3906,17.7031 19.6875,19.1094 Q18.9844,20.5 18.9844,22.6719 Q18.9844,25.0625 19.5781,26.3281 Q20.1875,27.5781 21.5,27.5781 Q22.4219,27.5781 23.0938,26.9063 Q23.7656,26.2188 24.0938,24.6406 L25.1406,25.1406 Q24.7344,26.9063 23.75,27.8906 Q22.7656,28.8594 21.4219,28.8594 Z " fill="#000000"/><text fill="#000000" font-family="sans-serif" font-size="12" lengthAdjust="spacing" textLength="32" x="36" y="28.5576">Driver</text><line style="stroke:#A80036;stroke-width:1.5;" x1="8" x2="70" y1="39" y2="39"/><line style="stroke:#A80036;stroke-width:1.5;" x1="8" x2="70" y1="47" y2="47"/><!--MD5=[63ed6a0a2dfd613875880437a5e2b06e]
class Wheel--><rect fill="#FEFECE" filter="url(#fqrbzfvpp5bvq)" height="48" id="Wheel" style="stroke:#A80036;stroke-width:1.5;" width="67" x="292.5" y="7"/><ellipse cx="307.5" cy="23" fill="#ADD1B2" rx="11" ry="11" style="stroke:#A80036;stroke-width:1.0;"/><path d="M306.9219,28.8594 Q304.8906,28.8594 303.7031,27.3594 Q302.5313,25.8594 302.5313,22.75 Q302.5313,20.1094 303.7813,18.3438 Q305.0313,16.5625 307.1875,16.5625 Q307.7031,16.5625 308.2344,16.7031 Q308.6719,16.8906 308.9219,16.8906 Q309.1094,16.8906 309.2031,16.8594 Q309.2969,16.8125 309.8438,16.0938 L310.6563,20.0625 L309.6094,20.375 Q309.1563,18.875 308.5625,18.2969 Q307.9844,17.7031 307.0625,17.7031 Q305.8906,17.7031 305.1875,19.1094 Q304.4844,20.5 304.4844,22.6719 Q304.4844,25.0625 305.0781,26.3281 Q305.6875,27.5781 307,27.5781 Q307.9219,27.5781 308.5938,26.9063 Q309.2656,26.2188 309.5938,24.6406 L310.6406,25.1406 Q310.2344,26.9063 309.25,27.8906 Q308.2656,28.8594 306.9219,28.8594 Z " fill="#000000"/><text fill="#000000" font-family="sans-serif" font-size="12" lengthAdjust="spacing" textLength="35" x="321.5" y="28.5576">Wheel</text><line style="stroke:#A80036;stroke-width:1.5;" x1="293.5" x2="358.5" y1="39" y2="39"/><line style="stroke:#A80036;stroke-width:1.5;" x1="293.5" x2="358.5" y1="47" y2="47"/><!--MD5=[09ce52be0ee7de43c61b6e2d59bf108b]
class Person--><rect fill="#FEFECE" filter="url(#fqrbzfvpp5bvq)" height="48" id="Person" style="stroke:#A80036;stroke-width:1.5;" width="72" x="144" y="134"/><ellipse cx="159" cy="150" fill="#ADD1B2" rx="11" ry="11" style="stroke:#A80036;stroke-width:1.0;"/><path d="M158.4219,155.8594 Q156.3906,155.8594 155.2031,154.3594 Q154.0313,152.8594 154.0313,149.75 Q154.0313,147.1094 155.2813,145.3438 Q156.5313,143.5625 158.6875,143.5625 Q159.2031,143.5625 159.7344,143.7031 Q160.1719,143.8906 160.4219,143.8906 Q160.6094,143.8906 160.7031,143.8594 Q160.7969,143.8125 161.3438,143.0938 L162.1563,147.0625 L161.1094,147.375 Q160.6563,145.875 160.0625,145.2969 Q159.4844,144.7031 158.5625,144.7031 Q157.3906,144.7031 156.6875,146.1094 Q155.9844,147.5 155.9844,149.6719 Q155.9844,152.0625 156.5781,153.3281 Q157.1875,154.5781 158.5,154.5781 Q159.4219,154.5781 160.0938,153.9063 Q160.7656,153.2188 161.0938,151.6406 L162.1406,152.1406 Q161.7344,153.9063 160.75,154.8906 Q159.7656,155.8594 158.4219,155.8594 Z " fill="#000000"/><text fill="#000000" font-family="sans-serif" font-size="12" lengthAdjust="spacing" textLength="40" x="173" y="155.5576">Person</text><line style="stroke:#A80036;stroke-width:1.5;" x1="145" x2="215" y1="166" y2="166"/><line style="stroke:#A80036;stroke-width:1.5;" x1="145" x2="215" y1="174" y2="174"/><!--MD5=[85884a73f707af3ae230d559cad4fc2c]
link Driver to Car--><path codeLine="2" d="M71.35,31 C96.39,31 130.62,31 153.93,31 " fill="none" id="Driver-Car" style="stroke:#A80036;stroke-width:1.0;"/><polygon fill="#000000" points="98.5,18.8772,89.4549,15.9383,89.4549,21.8161,98.5,18.8772" style="stroke:#000000;stroke-width:1.0;"/><text fill="#000000" font-family="sans-serif" font-size="13" lengthAdjust="spacing" textLength="33" x="102.5" y="24.8979">drives</text><!--MD5=[6190aadcc963d15c02367c0199cc5452]
reverse link Car to Wheel--><path codeLine="3" d="M219.15,31 C242.02,31 270.58,31 292.42,31 " fill="none" id="Car-backto-Wheel" style="stroke:#A80036;stroke-width:1.0;"/><polygon fill="#A80036" points="206.1,31,212.1,35,218.1,31,212.1,27,206.1,31" style="stroke:#A80036;stroke-width:1.0;"/><polygon fill="#000000" points="233.25,18.8772,224.2049,15.9383,224.2049,21.8161,233.25,18.8772" style="stroke:#000000;stroke-width:1.0;"/><text fill="#000000" font-family="sans-serif" font-size="13" lengthAdjust="spacing" textLength="37" x="237.25" y="24.8979">have 4</text><!--MD5=[2800f28b8e2a8d078fc1fa2e2aa6715e]
link Car to Person--><path codeLine="4" d="M180,55.22 C180,77.67 180,111.5 180,133.91 " fill="none" id="Car-Person" style="stroke:#A80036;stroke-width:1.0;"/><polygon fill="#000000" points="185,89.8772,182.0611,98.9223,187.9389,98.9223,185,89.8772" style="stroke:#000000;stroke-width:1.0;"/><text fill="#000000" font-family="sans-serif" font-size="13" lengthAdjust="spacing" textLength="30" x="194" y="100.8979">owns</text><!--MD5=[24f19bf331be381785d26b6c5f8d6ad4]
@startuml
class Car
Driver - Car : drives >
Car *- Wheel : have 4 >
Car - - Person : < owns
@enduml

PlantUML version 1.2021.8(Sat Jun 26 16:20:59 CST 2021)
(GPL source distribution)
Java Runtime: OpenJDK Runtime Environment
JVM: OpenJDK 64-Bit Server VM
Default Encoding: GBK
Language: en
Country: US
--></g></svg>