<?xml version="1.0" encoding="us-ascii" standalone="no"?><svg xmlns="http://www.w3.org/2000/svg" xmlns:xlink="http://www.w3.org/1999/xlink" contentStyleType="text/css" height="188px" preserveAspectRatio="none" style="width:380px;height:188px;background:#FFFFFF;" version="1.1" viewBox="0 0 380 188" width="380px" zoomAndPan="magnify"><defs/><g><!--class Car--><g id="elem_Car"><rect codeLine="1" fill="#F1F1F1" height="48" id="Car" rx="2.5" ry="2.5" style="stroke:#181818;stroke-width:0.5;" width="55" x="159.5" y="7"/><ellipse cx="174.5" cy="23" fill="#ADD1B2" rx="11" ry="11" style="stroke:#181818;stroke-width:1.0;"/><path d="M177.2656,18.875 Q177.4219,18.6563 177.6094,18.5469 Q177.7969,18.4375 178.0156,18.4375 Q178.3906,18.4375 178.625,18.7031 Q178.8594,18.9531 178.8594,19.5625 L178.8594,21.0156 Q178.8594,21.625 178.625,21.8906 Q178.3906,22.1563 178.0156,22.1563 Q177.6719,22.1563 177.4688,21.9531 Q177.2656,21.7656 177.1563,21.25 Q177.1094,20.8906 176.9219,20.7031 Q176.5938,20.3281 175.9844,20.1094 Q175.375,19.8906 174.75,19.8906 Q173.9844,19.8906 173.3438,20.2188 Q172.7188,20.5469 172.2188,21.2969 Q171.7344,22.0469 171.7344,23.0781 L171.7344,24.1719 Q171.7344,25.4063 172.625,26.2344 Q173.5156,27.0469 175.1094,27.0469 Q176.0469,27.0469 176.7031,26.7969 Q177.0938,26.6406 177.5156,26.2031 Q177.7813,25.9375 177.9219,25.8594 Q178.0781,25.7813 178.2813,25.7813 Q178.6094,25.7813 178.8594,26.0469 Q179.125,26.2969 179.125,26.6406 Q179.125,26.9844 178.7813,27.3906 Q178.2813,27.9688 177.4844,28.2969 Q176.4063,28.75 175.1094,28.75 Q173.5938,28.75 172.3906,28.125 Q171.4063,27.625 170.7188,26.5625 Q170.0313,25.4844 170.0313,24.2031 L170.0313,23.0469 Q170.0313,21.7188 170.6406,20.5781 Q171.2656,19.4219 172.3594,18.8125 Q173.4531,18.1875 174.6875,18.1875 Q175.4219,18.1875 176.0625,18.3594 Q176.7188,18.5156 177.2656,18.875 Z " fill="#000000"/><text fill="#000000" font-family="sans-serif" font-size="14" lengthAdjust="spacing" textLength="23" x="188.5" y="28.7285">Car</text><line style="stroke:#181818;stroke-width:0.5;" x1="160.5" x2="213.5" y1="39" y2="39"/><line style="stroke:#181818;stroke-width:0.5;" x1="160.5" x2="213.5" y1="47" y2="47"/></g><!--class Driver--><g id="elem_Driver"><rect fill="#F1F1F1" height="48" id="Driver" rx="2.5" ry="2.5" style="stroke:#181818;stroke-width:0.5;" width="70" x="7" y="7"/><ellipse cx="22" cy="23" fill="#ADD1B2" rx="11" ry="11" style="stroke:#181818;stroke-width:1.0;"/><path d="M24.7656,18.875 Q24.9219,18.6563 25.1094,18.5469 Q25.2969,18.4375 25.5156,18.4375 Q25.8906,18.4375 26.125,18.7031 Q26.3594,18.9531 26.3594,19.5625 L26.3594,21.0156 Q26.3594,21.625 26.125,21.8906 Q25.8906,22.1563 25.5156,22.1563 Q25.1719,22.1563 24.9688,21.9531 Q24.7656,21.7656 24.6563,21.25 Q24.6094,20.8906 24.4219,20.7031 Q24.0938,20.3281 23.4844,20.1094 Q22.875,19.8906 22.25,19.8906 Q21.4844,19.8906 20.8438,20.2188 Q20.2188,20.5469 19.7188,21.2969 Q19.2344,22.0469 19.2344,23.0781 L19.2344,24.1719 Q19.2344,25.4063 20.125,26.2344 Q21.0156,27.0469 22.6094,27.0469 Q23.5469,27.0469 24.2031,26.7969 Q24.5938,26.6406 25.0156,26.2031 Q25.2813,25.9375 25.4219,25.8594 Q25.5781,25.7813 25.7813,25.7813 Q26.1094,25.7813 26.3594,26.0469 Q26.625,26.2969 26.625,26.6406 Q26.625,26.9844 26.2813,27.3906 Q25.7813,27.9688 24.9844,28.2969 Q23.9063,28.75 22.6094,28.75 Q21.0938,28.75 19.8906,28.125 Q18.9063,27.625 18.2188,26.5625 Q17.5313,25.4844 17.5313,24.2031 L17.5313,23.0469 Q17.5313,21.7188 18.1406,20.5781 Q18.7656,19.4219 19.8594,18.8125 Q20.9531,18.1875 22.1875,18.1875 Q22.9219,18.1875 23.5625,18.3594 Q24.2188,18.5156 24.7656,18.875 Z " fill="#000000"/><text fill="#000000" font-family="sans-serif" font-size="14" lengthAdjust="spacing" textLength="38" x="36" y="28.7285">Driver</text><line style="stroke:#181818;stroke-width:0.5;" x1="8" x2="76" y1="39" y2="39"/><line style="stroke:#181818;stroke-width:0.5;" x1="8" x2="76" y1="47" y2="47"/></g><!--class Wheel--><g id="elem_Wheel"><rect fill="#F1F1F1" height="48" id="Wheel" rx="2.5" ry="2.5" style="stroke:#181818;stroke-width:0.5;" width="72" x="301" y="7"/><ellipse cx="316" cy="23" fill="#ADD1B2" rx="11" ry="11" style="stroke:#181818;stroke-width:1.0;"/><path d="M318.7656,18.875 Q318.9219,18.6563 319.1094,18.5469 Q319.2969,18.4375 319.5156,18.4375 Q319.8906,18.4375 320.125,18.7031 Q320.3594,18.9531 320.3594,19.5625 L320.3594,21.0156 Q320.3594,21.625 320.125,21.8906 Q319.8906,22.1563 319.5156,22.1563 Q319.1719,22.1563 318.9688,21.9531 Q318.7656,21.7656 318.6563,21.25 Q318.6094,20.8906 318.4219,20.7031 Q318.0938,20.3281 317.4844,20.1094 Q316.875,19.8906 316.25,19.8906 Q315.4844,19.8906 314.8438,20.2188 Q314.2188,20.5469 313.7188,21.2969 Q313.2344,22.0469 313.2344,23.0781 L313.2344,24.1719 Q313.2344,25.4063 314.125,26.2344 Q315.0156,27.0469 316.6094,27.0469 Q317.5469,27.0469 318.2031,26.7969 Q318.5938,26.6406 319.0156,26.2031 Q319.2813,25.9375 319.4219,25.8594 Q319.5781,25.7813 319.7813,25.7813 Q320.1094,25.7813 320.3594,26.0469 Q320.625,26.2969 320.625,26.6406 Q320.625,26.9844 320.2813,27.3906 Q319.7813,27.9688 318.9844,28.2969 Q317.9063,28.75 316.6094,28.75 Q315.0938,28.75 313.8906,28.125 Q312.9063,27.625 312.2188,26.5625 Q311.5313,25.4844 311.5313,24.2031 L311.5313,23.0469 Q311.5313,21.7188 312.1406,20.5781 Q312.7656,19.4219 313.8594,18.8125 Q314.9531,18.1875 316.1875,18.1875 Q316.9219,18.1875 317.5625,18.3594 Q318.2188,18.5156 318.7656,18.875 Z " fill="#000000"/><text fill="#000000" font-family="sans-serif" font-size="14" lengthAdjust="spacing" textLength="40" x="330" y="28.7285">Wheel</text><line style="stroke:#181818;stroke-width:0.5;" x1="302" x2="372" y1="39" y2="39"/><line style="stroke:#181818;stroke-width:0.5;" x1="302" x2="372" y1="47" y2="47"/></g><!--class Person--><g id="elem_Person"><rect fill="#F1F1F1" height="48" id="Person" rx="2.5" ry="2.5" style="stroke:#181818;stroke-width:0.5;" width="77" x="148.5" y="133"/><ellipse cx="163.5" cy="149" fill="#ADD1B2" rx="11" ry="11" style="stroke:#181818;stroke-width:1.0;"/><path d="M166.2656,144.875 Q166.4219,144.6563 166.6094,144.5469 Q166.7969,144.4375 167.0156,144.4375 Q167.3906,144.4375 167.625,144.7031 Q167.8594,144.9531 167.8594,145.5625 L167.8594,147.0156 Q167.8594,147.625 167.625,147.8906 Q167.3906,148.1563 167.0156,148.1563 Q166.6719,148.1563 166.4688,147.9531 Q166.2656,147.7656 166.1563,147.25 Q166.1094,146.8906 165.9219,146.7031 Q165.5938,146.3281 164.9844,146.1094 Q164.375,145.8906 163.75,145.8906 Q162.9844,145.8906 162.3438,146.2188 Q161.7188,146.5469 161.2188,147.2969 Q160.7344,148.0469 160.7344,149.0781 L160.7344,150.1719 Q160.7344,151.4063 161.625,152.2344 Q162.5156,153.0469 164.1094,153.0469 Q165.0469,153.0469 165.7031,152.7969 Q166.0938,152.6406 166.5156,152.2031 Q166.7813,151.9375 166.9219,151.8594 Q167.0781,151.7813 167.2813,151.7813 Q167.6094,151.7813 167.8594,152.0469 Q168.125,152.2969 168.125,152.6406 Q168.125,152.9844 167.7813,153.3906 Q167.2813,153.9688 166.4844,154.2969 Q165.4063,154.75 164.1094,154.75 Q162.5938,154.75 161.3906,154.125 Q160.4063,153.625 159.7188,152.5625 Q159.0313,151.4844 159.0313,150.2031 L159.0313,149.0469 Q159.0313,147.7188 159.6406,146.5781 Q160.2656,145.4219 161.3594,144.8125 Q162.4531,144.1875 163.6875,144.1875 Q164.4219,144.1875 165.0625,144.3594 Q165.7188,144.5156 166.2656,144.875 Z " fill="#000000"/><text fill="#000000" font-family="sans-serif" font-size="14" lengthAdjust="spacing" textLength="45" x="177.5" y="154.7285">Person</text><line style="stroke:#181818;stroke-width:0.5;" x1="149.5" x2="224.5" y1="165" y2="165"/><line style="stroke:#181818;stroke-width:0.5;" x1="149.5" x2="224.5" y1="173" y2="173"/></g><!--link Driver to Car--><g id="link_Driver_Car"><path codeLine="2" d="M77.1,31 C102.41,31 136.1,31 159.48,31 " fill="none" id="Driver-Car" style="stroke:#181818;stroke-width:1.0;"/><polygon fill="#000000" points="104.25,19.1758,95.2049,16.2369,95.2049,22.1147,104.25,19.1758" style="stroke:#000000;stroke-width:1.0;"/><text fill="#000000" font-family="sans-serif" font-size="13" lengthAdjust="spacing" textLength="33" x="108.25" y="24.4951">drives</text></g><!--reverse link Car to Wheel--><g id="link_Car_Wheel"><path codeLine="3" d="M226.51,31 C250.79,31 274.33,31 300.89,31 " fill="none" id="Car-backto-Wheel" style="stroke:#181818;stroke-width:1.0;"/><polygon fill="#181818" points="214.51,31,220.51,35,226.51,31,220.51,27,214.51,31" style="stroke:#181818;stroke-width:1.0;"/><polygon fill="#000000" points="241.75,19.1758,232.7049,16.2369,232.7049,22.1147,241.75,19.1758" style="stroke:#000000;stroke-width:1.0;"/><text fill="#000000" font-family="sans-serif" font-size="13" lengthAdjust="spacing" textLength="37" x="245.75" y="24.4951">have 4</text></g><!--link Car to Person--><g id="link_Car_Person"><path codeLine="4" d="M187,55.03 C187,77.17 187,110.44 187,132.67 " fill="none" id="Car-Person" style="stroke:#181818;stroke-width:1.0;"/><polygon fill="#000000" points="192,89.1758,189.0611,98.2209,194.9389,98.2209,192,89.1758" style="stroke:#000000;stroke-width:1.0;"/><text fill="#000000" font-family="sans-serif" font-size="13" lengthAdjust="spacing" textLength="30" x="201" y="99.4951">owns</text></g><!--SRC=[Iyv9B2vMS4uiud8foYnBBLBG1N4Kh1HIGDnY1Jik45TBLo4y8pKr1oYUaLYMgc025TVLLGX8BIhEpmDAs2Zab-SL0m00]--></g></svg>