<?xml version="1.0" encoding="iso-8859-1" standalone="no"?> 
<?xml-stylesheet href="latex-nm1wig.css" type="text/css"?> 
<svg xmlns="http://www.w3.org/2000/svg" xmlns:xlink="http://www.w3.org/1999/xlink" width="181.53093pt" height="91.44868pt" viewBox="-156.69008 -85.55823 181.53093 91.44868 "> 
<g transform="translate(0, 5.89046 ) scale(1,-1) translate(0,85.55823 )"> 
                                               <g stroke="#000" fill="#000">
 <g stroke-width="0.4">
 <g stroke="#00f" fill="#00f">
 <path d=" M 0.0 0.0 M 0.0 0.0 L 0.0 -56.90549 L -113.81097 -56.90549 L -113.81097 0.0 Z M -113.81097 -56.90549  " />
 </g>
 <g stroke="#00f" fill="#00f">
 <path d=" M 0.0 0.0 M 0.0 0.0 L -2.84523 -4.92809 L 21.79562 -19.15445 L 24.64085 -14.22636 Z M 21.79562 -19.15445  " />
 </g>
 <g stroke="#00f" fill="#00f">
 <path d=" M -113.81097 0.0 M -108.12051 0.0 C -108.12051 3.14279 -110.66818 5.69046 -113.81097 5.69046 C -116.95377 5.69046 -119.50143 3.14279 -119.50143 0.0 C -119.50143 -3.14279 -116.95377 -5.69046 -113.81097 -5.69046 C -110.66818 -5.69046 -108.12051 -3.14279 -108.12051 0.0 Z M -113.81097 0.0  " />
 </g>
 <g stroke="#00f" fill="#00f">
 <path d=" M -113.81097 -56.90549 M -113.81097 -56.90549 L -113.81097 -85.35823 L -85.35823 -85.35823 L -85.35823 -56.90549 Z M -85.35823 -85.35823  " />
 </g>
 <g stroke="#00f" fill="#00f">
 <path d=" M 0.0 -56.90549 M 0.0 -56.90549 L 0.0 -85.35823 L -28.45274 -85.35823 L -28.45274 -56.90549 Z M -28.45274 -85.35823  " />
 </g>
 <g stroke="#00f" fill="#00f">
 <path d=" M -113.81097 0.0 M -113.81097 0.0 L -113.81097 -42.67911 L -156.49008 -42.67911 L -156.49008 0.0 Z M -156.49008 -42.67911  " />
 </g>
 </g>
 </g>
 
                                                      </g> 
</svg> 
